<svg width="191" height="47" viewBox="0 0 191 47" fill="none" xmlns="http://www.w3.org/2000/svg">
    <path fill-rule="evenodd" clip-rule="evenodd" d="M36.2428 1.43013C48.0597 5.14695 49.7067 18.8994 49.7067 18.8994H49.7104C50.0808 22.3341 49.9541 25.8043 49.3344 29.2029C49.2904 29.3777 49.2468 29.5788 49.1979 29.8049C48.7049 32.0831 47.6632 36.8966 40.0104 42.8895C38.386 44.1802 36.4722 45.6269 34.5141 45.8271L34.5134 45.8271C34.2693 45.8497 34.0271 45.872 33.9134 45.6936C33.7997 45.515 34.1804 45.0478 34.2697 44.9811C39.3834 41.9326 46.4608 36.7898 46.7719 24.6636C46.7719 24.6636 47.4798 13.2471 40.4296 7.86172C37.9997 5.94332 35.2604 4.45335 32.3295 3.45586C31.9516 3.36656 28.3909 2.56567 28.3016 3.16634C28.1643 4.01141 29.6138 4.07815 30.3263 4.10071C31.8127 4.27606 33.2531 4.72783 34.5733 5.43272C40.1289 8.17149 41.9729 11.3352 42.66 12.514C42.7266 12.6283 42.7823 12.7239 42.8295 12.7987C45.0443 16.2971 45.1022 22.7797 45.1176 24.5099C45.1188 24.6397 45.1197 24.7428 45.1213 24.8158C45.2065 31.1039 42.0225 35.4676 40.4181 37.6665C40.3589 37.7476 40.3019 37.8257 40.2473 37.9009C37.6209 41.5068 31.7204 46.1354 22.1322 46.9363C17.9527 47.248 13.7704 46.3679 10.0709 44.3983C7.48655 42.8457 5.32975 40.6737 3.79534 38.0785C3.32815 37.2325 2.43796 35.0301 3.48419 34.8073C3.84989 34.7422 4.31495 35.3743 4.9787 36.2764C5.44612 36.9116 6.01208 37.6808 6.71127 38.4348C8.21844 40.2151 10.0545 41.6884 12.1192 42.7739C15.1677 44.2648 18.8394 45.1098 20.3753 44.8654C20.515 44.8651 20.6311 44.7579 20.6426 44.6188C20.6542 44.4796 20.5572 44.3548 20.4195 44.3315C18.9551 44.1107 17.5059 43.7986 16.0804 43.3971C12.4459 41.8882 9.23117 39.521 6.71127 36.4984C5.39623 34.6761 4.49419 32.5891 4.06794 30.3826C3.68993 27.1319 3.63766 23.8516 3.9119 20.5905C4.64968 16.1588 6.95399 12.1392 10.4055 9.26328C12.264 7.63359 15.3508 6.376 17.1217 5.6545C17.599 5.46002 17.9808 5.3045 18.2171 5.19113C18.289 5.16021 18.3316 5.0852 18.3214 5.00755C18.3111 4.9299 18.2504 4.86856 18.1729 4.85743C17.9484 4.84765 17.7236 4.87012 17.5055 4.92417C17.4206 4.94819 17.3292 4.96581 17.2348 4.984C17.1555 4.99927 17.0742 5.01493 16.9932 5.03509C16.5081 5.12439 2.57238 8.28473 2.41634 25.1975C2.41634 26.7109 1.08151 25.8423 0.92547 24.908C0.478459 22.4579 0.546648 19.9417 1.12569 17.5194C2.20825 13.4045 4.55158 9.73156 7.82707 7.0157C11.902 3.52167 17.5957 1.49687 22.3362 0.673417C22.386 0.66461 22.4358 0.655816 22.4854 0.647041C26.4443 -0.0531865 29.7367 -0.635519 36.2428 1.43013ZM2.92858 32.3846C2.80717 31.7611 2.74018 31.1283 2.72835 30.4933L2.72929 30.4989C2.74146 29.7384 2.54091 28.9895 2.15024 28.3369C1.91774 28.0448 1.56657 27.8723 1.19331 27.8669C-0.520341 27.8443 0.0361479 30.6042 0.303112 31.5386C0.387958 31.9597 0.606552 32.3421 0.926343 32.629C1.25969 32.881 1.64888 33.049 2.06094 33.1187C2.2815 33.1968 2.52692 33.1519 2.70553 33.0007C2.88413 32.8496 2.96906 32.615 2.92858 32.3846Z" fill="#DA1A32"/>
    <path d="M36.8659 22.1709C36.6215 22.0816 36.3959 21.9932 36.2201 21.9265C35.5743 21.6595 33.9951 21.2591 32.7261 20.9254C32.0136 20.7477 31.302 20.5494 31.1459 20.5024C30.8983 19.7893 30.6976 19.0608 30.5452 18.3215C30.5027 18.0802 30.4433 17.8421 30.3676 17.609C30.2567 17.2086 30.1006 16.9858 29.7218 17.0299H29.6992C29.5658 17.0525 27.6744 17.5197 24.6034 18.3206C22.5354 18.8545 20.3978 19.3884 20.2643 19.411C20.0866 19.4336 19.9973 19.5219 18.6399 21.636C18.2395 22.2593 17.7272 23.0602 17.6604 23.1495C17.6163 23.172 17.3267 23.3055 17.0147 23.4606C16.1686 23.861 14.5706 24.5952 13.2095 25.3745C11.5739 26.268 10.0244 27.3108 8.58083 28.4897C8.49128 28.6165 8.49128 28.7859 8.58083 28.9127C8.73552 29.0905 8.97169 29.175 9.20407 29.1355C9.26582 29.134 9.32649 29.1189 9.38173 29.0913C9.67125 29.0246 18.8618 27.1774 24.1137 26.3098C25.4297 26.087 27.0954 25.8868 29.0544 25.664C33.8832 25.1517 38.7365 24.8847 39.0242 24.912C39.3182 24.9349 39.6061 24.8199 39.8035 24.6008C39.958 24.4208 40.0445 24.1923 40.0479 23.955C40.0037 23.4653 39.0016 22.9981 36.8659 22.1747" fill="white"/>
    <path fill-rule="evenodd" clip-rule="evenodd" d="M179.069 31.6729H177.578V31.984H178.156V33.5642H178.512V31.984H179.069V31.6729ZM179.892 31.673H179.357V33.5644H179.713V31.9842L180.27 33.5644H180.559L181.116 31.9842V33.5644H181.472V31.673H180.916L180.403 33.1197L179.892 31.673Z" fill="black"/>
    <path fill-rule="evenodd" clip-rule="evenodd" d="M67.9931 25.0313C67.1091 25.1479 66.2559 25.2605 65.7065 25.8866L65.7027 25.8904C66.5929 27.2929 68.5736 27.1369 69.8642 27.0034C74.4261 26.6471 79.2559 23.7096 79.3668 19.2144C79.5003 13.6956 74.0698 10.6245 68.6845 10.9582C66.3476 11.1143 62.9645 11.8043 63.677 15.0529C64.3845 15.4995 64.9987 15.4634 65.8444 15.4138C66.0099 15.4041 66.1844 15.3939 66.3702 15.3867C63.6093 18.4208 61.3144 21.8482 59.5607 25.5567C58.0854 28.4945 56.9803 31.604 56.2706 34.814C56.2566 34.8885 56.2417 34.9652 56.2264 35.0438C56.0223 36.0908 55.7538 37.4683 56.8713 38.4415C58.9959 38.2669 59.9811 36.2992 60.8152 34.6331C60.942 34.3797 61.0654 34.1333 61.1888 33.9012C61.3331 33.6332 61.4777 33.3649 61.6225 33.0963C64.6042 27.5655 67.665 21.8879 69.5117 15.5418C72.2753 15.9648 74.6301 17.3926 74.7194 19.8367C74.8087 22.6154 71.4039 24.2181 69.2005 24.8188C68.8091 24.9236 68.3978 24.9779 67.9931 25.0313ZM144.734 21.9028C145.256 20.8893 145.662 19.9352 146.116 18.8675L146.116 18.8673C146.378 18.2516 146.656 17.5981 146.981 16.8737C147.023 16.7768 147.088 16.6411 147.166 16.4757L147.167 16.4752C147.792 15.1592 149.309 11.9675 147.471 11.5325C147.465 11.5325 147.454 11.5311 147.44 11.5293C147.398 11.524 147.332 11.5156 147.315 11.5325C144.89 12.2082 142.951 15.6153 141.266 18.577C140.509 19.909 139.802 21.1509 139.125 22.0137C138.982 22.0101 138.837 22.0062 138.691 22.0022C136.114 21.9317 133.192 21.8518 133.34 23.7057C133.419 24.8534 134.645 25.3398 135.834 25.8114C136.3 25.9965 136.761 26.1793 137.145 26.3989C137.068 26.6428 136.93 27.0023 136.761 27.4415L136.761 27.4418C135.851 29.8076 134.052 34.483 136.21 35.8348C138.852 37.5082 140.252 33.6732 140.864 31.9955L140.884 31.9403C141.485 30.0573 142.221 28.2204 143.088 26.444C144.088 26.3701 145.139 26.1718 146.15 25.981C147.274 25.7687 148.35 25.5657 149.252 25.5538C149.186 25.8108 149.109 26.0823 149.028 26.3659L149.028 26.3663C148.537 28.0962 147.918 30.2739 148.876 32.3219C150.834 33.59 152.304 32.211 152.971 30.942C153.566 29.8374 153.883 28.2689 154.178 26.8077L154.178 26.8075C154.424 25.5904 154.654 24.4477 155.018 23.7095C155.395 23.4861 155.833 23.3208 156.27 23.1555C157.305 22.7647 158.338 22.3745 158.557 21.2175C158.082 20.7569 157.449 20.9012 156.802 21.0487C156.449 21.1293 156.091 21.2109 155.752 21.195C156.139 19.8138 156.6 18.4544 157.132 17.1228C157.2 16.9154 157.279 16.7012 157.359 16.482L157.359 16.482C157.804 15.2669 158.304 13.9012 157.399 12.7169C155.453 13.0525 154.5 14.6675 153.652 16.1028C153.55 16.2758 153.449 16.4462 153.349 16.6114C152.86 17.4297 152.417 18.2733 151.978 19.1082L151.978 19.1083C151.498 20.0219 151.024 20.9253 150.501 21.774C149.839 21.7889 149.203 21.8217 148.571 21.8542C147.332 21.9179 146.107 21.9809 144.736 21.9075L144.734 21.9028ZM82.7762 15.0062C84.0443 13.159 87.9614 11.2894 90.3424 12.0686L90.3453 12.0667C90.0141 13.687 89.1185 14.6396 88.0335 15.7936C87.8803 15.9565 87.7234 16.1235 87.5637 16.2968C87.4372 16.4333 87.2961 16.6001 87.1412 16.7835C86.2606 17.8253 84.9305 19.3989 83.2463 18.9448C81.6858 18.5228 81.9528 16.1859 82.7762 15.0062ZM181.671 15.4301C180.004 14.9891 179.178 16.0331 178.257 17.198L178.257 17.198L178.257 17.1981C178.108 17.3865 177.957 17.578 177.799 17.767C177.475 18.1533 177.197 18.5425 176.948 18.89C176.495 19.5231 176.141 20.0177 175.796 20.1039C175.121 20.3003 174.247 20.0668 173.41 19.8433C172.644 19.6389 171.91 19.443 171.39 19.5916C170.843 19.7791 170.454 20.2642 170.389 20.838C170.353 22.2141 171.7 22.6327 173.09 23.0646C173.41 23.1638 173.731 23.2637 174.039 23.3761C173.113 25.1775 172.382 27.0722 171.858 29.0284C171.388 30.9864 170.857 33.8798 171.969 35.9497C173.061 35.7674 173.484 34.6618 173.845 33.717C173.925 33.5071 174.002 33.3052 174.083 33.1231C175.476 29.6549 177.135 26.2994 179.045 23.0865C181.96 22.785 184.842 22.2264 187.658 21.4171C187.863 21.3644 188.088 21.3292 188.316 21.2935C189.053 21.1781 189.823 21.0575 190.061 20.3267C189.561 19.7376 188.674 19.7785 187.826 19.8177C187.617 19.8274 187.411 19.8369 187.213 19.8369C185.938 19.8248 184.612 19.864 183.409 19.8995C182.365 19.9303 181.414 19.9583 180.67 19.9478C180.795 19.6735 180.979 19.3847 181.174 19.0792C181.818 18.0712 182.577 16.8816 181.672 15.4301H181.671ZM107.44 26.8174C106.728 27.5207 106.05 28.1906 105.298 28.8725C105.972 28.9629 106.678 29.1117 107.395 29.2628C109.329 29.6705 111.339 30.0944 112.995 29.4286C112.668 28.3524 112.63 27.2089 112.884 26.1132C114.241 22.152 119.828 19.237 125.191 19.9044C125.377 20.0317 125.627 19.9606 125.908 19.8809C126.266 19.7792 126.674 19.6635 127.06 19.927C128.106 20.9858 127.53 22.2572 126.985 23.4602C126.614 24.2799 126.257 25.0679 126.437 25.7353C126.67 26.5725 127.419 26.7472 128.202 26.9297C128.918 27.0965 129.661 27.2698 130.065 27.9603C129.619 30.2747 124.237 30.1637 122.921 28.3833C122.612 28.5535 122.294 28.7423 121.965 28.9376C119.968 30.1232 117.562 31.5514 114.352 30.52C113.838 30.9701 113.296 31.3864 112.728 31.7665C110.735 32.7042 108.057 32.4623 105.304 32.2135C103.815 32.0789 102.304 31.9424 100.867 31.9892C100.608 31.9956 100.348 32.0377 100.089 32.0795C99.4338 32.1854 98.7866 32.29 98.1963 31.8116C97.9072 30.7649 98.1668 29.6431 98.8863 28.8299C99.9548 27.3464 101.619 26.2399 103.271 25.1422C104.612 24.2505 105.945 23.3647 106.942 22.2873C103.871 22.6248 97.6398 22.888 99.6204 18.7707C99.9995 18.4753 100.416 18.6145 100.861 18.7631C101.121 18.85 101.39 18.9401 101.668 18.9484C102.825 18.9838 104.127 18.8185 105.411 18.6555C106.545 18.5115 107.664 18.3694 108.656 18.3694C110.146 18.3694 112.214 18.6147 112.684 19.816C113.381 21.6308 111.511 23.1587 110.22 24.2131C109.944 24.4389 109.694 24.643 109.502 24.8235C108.736 25.5363 108.075 26.1901 107.44 26.8174ZM82.773 20.3782C83.0359 20.3189 83.3116 20.3736 83.532 20.5287C84.7572 24.4795 82.9447 27.0078 81.1745 29.4772C80.3725 30.5959 79.5792 31.7025 79.081 32.9237C78.981 33.1744 78.9497 33.4308 78.9192 33.6804C78.8684 34.097 78.8199 34.4946 78.4578 34.815C76.4555 35.4825 75.5653 33.5244 75.4093 31.9668C75.0519 28.4863 78.1884 25.1341 80.5808 22.5771C81.1711 21.9462 81.716 21.3638 82.152 20.8398C82.2845 20.6052 82.5101 20.4375 82.773 20.3782ZM98.3101 21.7262C97.1424 21.3079 95.4524 21.338 93.6814 21.3695C92.7178 21.3866 91.7303 21.4042 90.7899 21.3502C90.3033 21.3231 89.7866 21.266 89.2733 21.2093C87.2508 20.9857 85.2801 20.7679 85.4046 22.418C85.5822 24.8621 90.5004 24.5989 93.0601 24.3545C91.8168 25.5057 90.4152 26.6337 88.9935 27.7779L88.9935 27.778L88.9932 27.7782L88.9922 27.779C88.3527 28.2937 87.7091 28.8117 87.074 29.3365C86.8023 29.5641 86.4964 29.7979 86.1762 30.0425L86.176 30.0426C84.3983 31.4009 82.1813 33.0949 82.938 35.9242C84.2863 36.6879 85.8059 36.4235 87.4628 36.1352C88.2675 35.9952 89.1046 35.8495 89.9702 35.8133C92.3176 35.7295 94.5033 36.0169 96.6543 36.2996C99.0685 36.617 101.439 36.9286 103.945 36.7034C105.793 36.5474 108.708 35.9242 108.552 33.8994C107.823 33.4653 107.17 33.6468 106.495 33.8345L106.495 33.8345C106.201 33.9163 105.902 33.9992 105.591 34.0329C103.154 34.289 100.789 33.738 98.3411 33.1676C95.8934 32.5973 93.3624 32.0076 90.5925 32.1857C91.4414 31.2971 92.4472 30.4162 93.4708 29.5196C94.1645 28.912 94.8665 28.2972 95.5332 27.668C95.6275 27.5794 95.7246 27.4892 95.8236 27.3972L95.8255 27.3955L95.8259 27.3951C97.2922 26.033 99.1694 24.2891 98.3148 21.7262H98.3101ZM160.576 30.5163C161.199 28.6692 162 24.3968 159.396 23.7284C158.432 23.5218 157.427 23.7407 156.636 24.3291C156.636 24.8238 156.908 25.0176 157.181 25.2115C157.448 25.4015 157.715 25.5917 157.727 26.0653C157.576 26.5133 157.315 27.0478 157.031 27.6322L157.031 27.6323C156.057 29.6318 154.799 32.216 156.659 33.921C158.821 35.9016 162.334 33.5206 163.427 32.7197C163.674 32.5329 163.91 32.3281 164.139 32.1299C164.675 31.6668 165.169 31.2398 165.652 31.1621C165.896 33.7001 166.874 35.4345 169.146 35.7465C169.589 35.2586 169.483 34.7212 169.368 34.1414C169.31 33.8488 169.249 33.5454 169.257 33.232C169.391 31.6347 169.681 30.0545 170.124 28.5141C170.194 28.2075 170.285 27.8949 170.377 27.5795L170.377 27.5794L170.377 27.5793L170.377 27.5793L170.377 27.5792L170.377 27.5791L170.377 27.579L170.377 27.5789C170.751 26.2918 171.139 24.9579 170.191 23.7961C169.035 23.531 168.443 24.3154 167.921 25.0075C167.831 25.1277 167.742 25.2451 167.653 25.3537C165.849 27.7287 163.389 29.5235 160.577 30.5163H160.576ZM117.624 26.7571L117.624 26.758V26.7571L117.624 26.7571ZM120.863 25.8964C119.931 26.3189 118.997 26.7422 117.624 26.7571C118.203 24.3993 120.339 23.4867 122.765 22.8635C123.158 22.8768 122.987 23.1223 122.794 23.3989C122.659 23.5914 122.514 23.7989 122.542 23.954C122.319 24.3885 122.198 24.8675 122.186 25.3555C121.717 25.5094 121.29 25.7028 120.863 25.8964Z" fill="white"/>
</svg>
