<svg width="142" height="35" viewBox="0 0 142 35" fill="none" xmlns="http://www.w3.org/2000/svg">
    <path fill-rule="evenodd" clip-rule="evenodd" d="M26.9888 1.06497C35.7885 3.83277 37.0149 14.0738 37.0149 14.0738H37.0177C37.2935 16.6315 37.1992 19.2156 36.7377 21.7465C36.7049 21.8766 36.6725 22.0264 36.6361 22.1948C36.2689 23.8912 35.4932 27.4757 29.7944 31.9385C28.5848 32.8996 27.1596 33.9769 25.7015 34.126L25.701 34.126C25.5192 34.1428 25.3388 34.1595 25.2542 34.0266C25.1695 33.8936 25.453 33.5457 25.5195 33.496C29.3275 31.2259 34.5978 27.3962 34.8295 18.3662C34.8295 18.3662 35.3566 9.86467 30.1066 5.85437C28.2971 4.4258 26.2572 3.31627 24.0747 2.57347C23.7933 2.50697 21.1417 1.91057 21.0752 2.35787C20.973 2.98717 22.0524 3.03687 22.583 3.05367C23.6898 3.18425 24.7625 3.52066 25.7456 4.04557C29.8826 6.08505 31.2558 8.441 31.7675 9.31879C31.8171 9.40389 31.8586 9.47509 31.8937 9.53077C33.543 12.1359 33.5861 16.9633 33.5976 18.2517C33.5985 18.3484 33.5991 18.4252 33.6003 18.4796C33.6638 23.1621 31.2928 26.4116 30.098 28.049C30.0539 28.1094 30.0115 28.1676 29.9708 28.2236C28.015 30.9088 23.6211 34.3556 16.4811 34.952C13.3687 35.1841 10.2543 34.5287 7.49942 33.062C5.57495 31.9058 3.96884 30.2884 2.82622 28.3559C2.47832 27.7259 1.81542 26.0858 2.59452 25.9199C2.86684 25.8714 3.21316 26.3421 3.70743 27.0139C4.05551 27.4869 4.47696 28.0597 4.99762 28.6212C6.11996 29.9469 7.48725 31.044 9.02472 31.8524C11.2948 32.9626 14.029 33.5919 15.1728 33.4099C15.2768 33.4096 15.3633 33.3298 15.3719 33.2262C15.3804 33.1225 15.3083 33.0296 15.2057 33.0123C14.1152 32.8478 13.0361 32.6154 11.9745 32.3165C9.26803 31.1928 6.87411 29.4301 4.99762 27.1792C4.01835 25.8222 3.34663 24.268 3.02922 22.625C2.74772 20.2043 2.7088 17.7615 2.91302 15.3331C3.46242 12.0329 5.17837 9.0397 7.74862 6.89807C9.13257 5.68449 11.4312 4.748 12.7499 4.21073C13.1054 4.06591 13.3896 3.95009 13.5656 3.86567C13.6192 3.84264 13.6509 3.78678 13.6433 3.72896C13.6356 3.67114 13.5905 3.62546 13.5327 3.61717C13.3655 3.60989 13.1982 3.62663 13.0357 3.66687C12.9726 3.68476 12.9044 3.69788 12.8341 3.71143C12.7751 3.72279 12.7146 3.73446 12.6542 3.74947C12.293 3.81597 1.91552 6.16937 1.79932 18.7638C1.79932 19.8908 0.805318 19.244 0.689118 18.5482C0.356243 16.7237 0.407021 14.8499 0.838218 13.0462C1.64436 9.9819 3.38937 7.24679 5.82852 5.22437C8.86302 2.62247 13.1029 1.11467 16.633 0.501472C16.6701 0.494914 16.7071 0.488365 16.7441 0.481831C19.6922 -0.0396063 22.1439 -0.473251 26.9888 1.06497ZM2.18082 24.116C2.09041 23.6517 2.04052 23.1805 2.03172 22.7076L2.03242 22.7118C2.04148 22.1454 1.89213 21.5878 1.60122 21.1018C1.42808 20.8843 1.16658 20.7558 0.888618 20.7518C-0.387482 20.735 0.0269182 22.7902 0.225718 23.486C0.2889 23.7996 0.45168 24.0844 0.689818 24.298C0.938049 24.4857 1.22787 24.6108 1.53472 24.6627C1.69896 24.7208 1.88172 24.6873 2.01472 24.5748C2.14772 24.4623 2.21096 24.2876 2.18082 24.116Z" fill="#DA1A32"/>
    <path d="M27.4529 16.5102C27.2709 16.4437 27.1029 16.3779 26.972 16.3282C26.4911 16.1294 25.3151 15.8312 24.3701 15.5827C23.8395 15.4504 23.3096 15.3027 23.1934 15.2677C23.009 14.7367 22.8596 14.1942 22.7461 13.6437C22.7144 13.4639 22.6702 13.2866 22.6138 13.1131C22.5312 12.8149 22.415 12.649 22.1329 12.6819H22.1161C22.0167 12.6987 20.6083 13.0466 18.3214 13.643C16.7814 14.0406 15.1896 14.4382 15.0902 14.455C14.9579 14.4718 14.8914 14.5376 13.8806 16.1119C13.5824 16.576 13.2009 17.1724 13.1512 17.2389C13.1183 17.2557 12.9027 17.3551 12.6703 17.4706C12.0403 17.7688 10.8503 18.3155 9.83672 18.8958C8.61874 19.5611 7.46489 20.3377 6.38992 21.2156C6.32323 21.31 6.32323 21.4361 6.38992 21.5306C6.50511 21.663 6.68097 21.7259 6.85402 21.6965C6.9 21.6954 6.94518 21.6841 6.98632 21.6636C7.20192 21.6139 14.0458 20.2384 17.9567 19.5923C18.9367 19.4264 20.1771 19.2773 21.6359 19.1114C25.2318 18.7299 28.8459 18.5311 29.0601 18.5514C29.279 18.5684 29.4935 18.4828 29.6404 18.3197C29.7555 18.1856 29.8199 18.0154 29.8224 17.8388C29.7895 17.4741 29.0433 17.1262 27.4529 16.513" fill="white"/>
    <path fill-rule="evenodd" clip-rule="evenodd" d="M133.347 23.5859H132.237V23.8176H132.667V24.9943H132.932V23.8176H133.347V23.5859ZM133.96 23.5859H133.562V24.9943H133.827V23.8176L134.241 24.9943H134.457L134.871 23.8176V24.9943H135.137V23.5859H134.722L134.341 24.6632L133.96 23.5859Z" fill="black"/>
    <path fill-rule="evenodd" clip-rule="evenodd" d="M50.6323 18.6397C49.9741 18.7266 49.3387 18.8104 48.9296 19.2767L48.9268 19.2795C49.5897 20.3239 51.0646 20.2077 52.0257 20.1083C55.4228 19.843 59.0194 17.6555 59.102 14.3081C59.2014 10.1984 55.1575 7.91145 51.1472 8.15995C49.407 8.27615 46.8877 8.78995 47.4183 11.2092C47.9452 11.5417 48.4025 11.5148 49.0323 11.4779C49.1556 11.4707 49.2855 11.463 49.4238 11.4577C47.3679 13.7171 45.659 16.2694 44.353 19.031C43.2544 21.2187 42.4315 23.5342 41.903 25.9246C41.8926 25.9801 41.8815 26.0372 41.8701 26.0957C41.7181 26.8754 41.5182 27.9011 42.3503 28.6259C43.9325 28.4958 44.6661 27.0305 45.2872 25.7899C45.3817 25.6012 45.4735 25.4177 45.5654 25.2449C45.6729 25.0453 45.7806 24.8455 45.8884 24.6454C48.1088 20.5268 50.388 16.2989 51.7632 11.5732C53.8212 11.8882 55.5747 12.9515 55.6412 14.7715C55.7077 16.8407 53.1723 18.0342 51.5315 18.4815C51.24 18.5595 50.9338 18.5999 50.6323 18.6397ZM107.779 16.3101C108.168 15.5553 108.47 14.8448 108.808 14.0498C109.003 13.5912 109.21 13.1046 109.452 12.5651C109.484 12.4928 109.532 12.3916 109.59 12.2683C110.056 11.2883 111.186 8.91159 109.817 8.58765C109.813 8.58765 109.804 8.58659 109.794 8.58527C109.763 8.58134 109.713 8.57507 109.701 8.58765C107.895 9.09078 106.451 11.6279 105.197 13.8335C104.632 14.8253 104.106 15.7501 103.602 16.3927C103.496 16.39 103.388 16.387 103.279 16.3841C101.36 16.3316 99.1839 16.2721 99.2939 17.6527C99.3532 18.5073 100.266 18.8695 101.151 19.2207C101.499 19.3585 101.842 19.4946 102.128 19.6582C102.07 19.8398 101.967 20.1076 101.841 20.4348C101.164 22.1965 99.8241 25.6782 101.432 26.6848C103.399 27.9309 104.441 25.0751 104.897 23.8258L104.912 23.7847C105.359 22.3825 105.908 21.0146 106.553 19.6918C107.298 19.6368 108.08 19.4891 108.833 19.347C109.671 19.1889 110.471 19.0377 111.144 19.0289C111.094 19.2203 111.037 19.4226 110.977 19.6339C110.611 20.9221 110.15 22.5438 110.864 24.0689C112.322 25.0132 113.416 23.9863 113.913 23.0413C114.356 22.2187 114.592 21.0506 114.811 19.9625C114.994 19.0561 115.166 18.2051 115.437 17.6555C115.718 17.4891 116.044 17.366 116.369 17.2429C117.14 16.9519 117.909 16.6613 118.072 15.7998C117.719 15.4568 117.247 15.5642 116.766 15.674C116.502 15.7341 116.236 15.7948 115.984 15.783C116.272 14.7544 116.615 13.7422 117.012 12.7506C117.062 12.5961 117.121 12.4365 117.18 12.2733C117.512 11.3685 117.884 10.3515 117.21 9.46965C115.761 9.71954 115.051 10.9222 114.42 11.991C114.344 12.1198 114.269 12.2467 114.194 12.3698C113.83 12.979 113.5 13.607 113.174 14.2287L113.173 14.2291C112.816 14.9094 112.463 15.5821 112.073 16.2142C111.581 16.2253 111.107 16.2496 110.636 16.2739C109.713 16.3213 108.801 16.3683 107.781 16.3136L107.779 16.3101ZM61.6409 11.1742C62.5852 9.79865 65.5021 8.40635 67.2752 8.98665L67.2773 8.98525C67.0307 10.1918 66.3638 10.9012 65.5558 11.7605C65.4418 11.8819 65.3249 12.0061 65.206 12.1353C65.1117 12.2369 65.0067 12.3611 64.8913 12.4976L64.8913 12.4976C64.2356 13.2734 63.2451 14.4453 61.9909 14.1072C60.8289 13.7929 61.0277 12.0527 61.6409 11.1742ZM135.284 11.4899C134.043 11.1615 133.428 11.9388 132.743 12.8063L132.742 12.8065C132.631 12.9468 132.519 13.0894 132.401 13.2301C132.16 13.5176 131.953 13.8072 131.768 14.0658L131.768 14.0659L131.768 14.0661L131.768 14.0663C131.43 14.5378 131.167 14.9061 130.909 14.9703C130.407 15.1165 129.756 14.9426 129.133 14.7762C128.563 14.624 128.016 14.4781 127.629 14.5888C127.222 14.7284 126.932 15.0896 126.883 15.517C126.856 16.5417 127.86 16.8534 128.895 17.175L128.895 17.1751L128.895 17.1751C129.133 17.249 129.372 17.3233 129.601 17.407C128.912 18.7484 128.368 20.1594 127.977 21.6161C127.627 23.0742 127.232 25.2288 128.06 26.7702C128.873 26.6344 129.188 25.8111 129.457 25.1075C129.516 24.9512 129.574 24.8009 129.634 24.6653C130.672 22.0826 131.907 19.5839 133.329 17.1914C135.5 16.9668 137.646 16.5508 139.743 15.9482C139.895 15.909 140.063 15.8827 140.233 15.8561C140.782 15.7702 141.355 15.6804 141.533 15.1362C141.16 14.6975 140.5 14.728 139.868 14.7572C139.713 14.7643 139.559 14.7715 139.412 14.7715C138.462 14.7625 137.474 14.7916 136.579 14.818C135.802 14.841 135.094 14.8619 134.54 14.8541C134.632 14.6498 134.769 14.4347 134.915 14.2072C135.394 13.4566 135.959 12.5707 135.285 11.4899H135.284ZM80.0071 19.9698C79.4771 20.4935 78.9723 20.9923 78.4121 21.5001C78.9137 21.5674 79.4396 21.6783 79.9734 21.7908C81.4135 22.0944 82.9109 22.41 84.1438 21.9143C83.9002 21.1128 83.8717 20.2613 84.0612 19.4454C85.072 16.4956 89.2321 14.3249 93.2256 14.8219C93.3641 14.9166 93.5506 14.8637 93.7597 14.8043C94.0264 14.7287 94.33 14.6425 94.6179 14.8387C95.3964 15.6272 94.9676 16.5739 94.5619 17.4697C94.2854 18.0802 94.0196 18.6669 94.1538 19.164C94.3272 19.7874 94.8852 19.9175 95.4683 20.0534C96.0009 20.1776 96.5544 20.3066 96.8551 20.8209C96.5233 22.5443 92.5151 22.4617 91.5351 21.1359C91.3052 21.2625 91.0684 21.4031 90.8233 21.5486C89.3362 22.4315 87.5446 23.495 85.1546 22.727C84.7719 23.0621 84.3678 23.3722 83.945 23.6552C82.4607 24.3535 80.4667 24.1733 78.4163 23.988C77.3076 23.8878 76.1825 23.7862 75.1124 23.8211C74.9199 23.8258 74.7262 23.8571 74.5334 23.8883C74.0453 23.9671 73.5633 24.045 73.1237 23.6888C72.9084 22.9094 73.1017 22.074 73.6375 21.4684C74.4332 20.3637 75.6728 19.5397 76.9025 18.7223C77.9015 18.0583 78.8939 17.3986 79.6365 16.5964C77.3496 16.8477 72.7093 17.0437 74.1842 13.9777C74.4665 13.7577 74.7766 13.8613 75.1077 13.972C75.3014 14.0367 75.5022 14.1038 75.7088 14.11C76.5709 14.1363 77.5405 14.0132 78.496 13.8919C79.3405 13.7846 80.174 13.6788 80.9126 13.6788C82.0221 13.6788 83.5621 13.8615 83.9121 14.7561C84.431 16.1075 83.0386 17.2452 82.0776 18.0304L82.0775 18.0305L82.0774 18.0306C81.8717 18.1986 81.6858 18.3505 81.5426 18.485C80.9728 19.0155 80.4802 19.5023 80.0076 19.9693L80.0076 19.9693L80.0073 19.9696L80.0071 19.9698ZM61.6385 15.1746C61.8343 15.1304 62.0396 15.1712 62.2037 15.2867C63.1162 18.2287 61.7664 20.1115 60.4482 21.9503C59.851 22.7834 59.2602 23.6074 58.8892 24.5169C58.8147 24.7035 58.7915 24.8945 58.7688 25.0803C58.7309 25.3906 58.6948 25.6867 58.4251 25.9253C56.9341 26.4223 56.2712 24.9642 56.155 23.8043C55.8889 21.2125 58.2245 18.7161 60.0061 16.812C60.4456 16.3423 60.8514 15.9086 61.1761 15.5184C61.2748 15.3436 61.4428 15.2187 61.6385 15.1746ZM73.2084 16.1785C72.3389 15.867 71.0804 15.8894 69.7616 15.9128H69.7616C69.0441 15.9256 68.3087 15.9387 67.6084 15.8985C67.2461 15.8783 66.8613 15.8358 66.479 15.7935C64.973 15.6271 63.5054 15.4649 63.5981 16.6937C63.7304 18.5137 67.3928 18.3177 69.2989 18.1357C68.3731 18.993 67.3294 19.8329 66.2707 20.685L66.2707 20.685C65.7941 21.0686 65.3146 21.4545 64.8413 21.8457C64.6389 22.0151 64.4111 22.1892 64.1726 22.3714L64.1726 22.3714C62.8488 23.3829 61.1978 24.6444 61.7613 26.7513C62.7654 27.32 63.8969 27.1231 65.1308 26.9084C65.73 26.8041 66.3534 26.6957 66.998 26.6687C68.746 26.6063 70.3736 26.8203 71.9754 27.0308L71.9754 27.0309C73.7732 27.2672 75.5385 27.4992 77.4049 27.3316C78.7804 27.2154 80.9511 26.7513 80.8349 25.2435C80.2923 24.9202 79.806 25.0554 79.3033 25.1951C79.0842 25.256 78.862 25.3178 78.6306 25.3429C76.8157 25.5336 75.0546 25.1233 73.2315 24.6985C71.4088 24.2739 69.5241 23.8347 67.4614 23.9674C68.0935 23.3056 68.8425 22.6496 69.6048 21.982L69.6048 21.9819C70.1214 21.5295 70.6441 21.0717 71.1406 20.6032C71.2112 20.5368 71.284 20.4692 71.3581 20.4003L71.3585 20.3999C72.4504 19.3856 73.8483 18.087 73.2119 16.1785H73.2084ZM119.576 22.7242C120.04 21.3487 120.636 18.1672 118.697 17.6695C117.98 17.5156 117.231 17.6786 116.642 18.1168C116.642 18.4851 116.845 18.6294 117.048 18.7738C117.247 18.9153 117.446 19.0569 117.454 19.4097C117.342 19.7432 117.148 20.1413 116.936 20.5765C116.211 22.0655 115.274 23.9899 116.659 25.2596C118.269 26.7345 120.885 24.9614 121.699 24.365C121.883 24.2258 122.059 24.0733 122.23 23.9258C122.628 23.5809 122.996 23.2629 123.356 23.2051C123.538 25.0951 124.266 26.3866 125.958 26.619C126.288 26.2556 126.209 25.8554 126.123 25.4236C126.08 25.2057 126.035 24.9798 126.04 24.7465C126.14 23.557 126.356 22.3802 126.686 21.2332C126.739 21.0047 126.806 20.7718 126.874 20.5368C127.153 19.5783 127.441 18.585 126.736 17.7199C125.875 17.5224 125.434 18.1066 125.046 18.6219L125.045 18.6223L125.045 18.6225L125.045 18.6227L125.045 18.6229L125.045 18.6232L125.045 18.6234L125.044 18.6236C124.977 18.7125 124.912 18.7994 124.846 18.8798C123.503 20.6484 121.671 21.9848 119.576 22.7242H119.576ZM87.5908 19.9249L87.5906 19.9256V19.9249L87.5908 19.9249ZM90.003 19.2839C89.3088 19.5985 88.6132 19.9138 87.5908 19.9249C88.0222 18.1691 89.6125 17.4895 91.4189 17.0255C91.712 17.0354 91.5844 17.2181 91.4406 17.4241C91.3405 17.5675 91.2326 17.722 91.253 17.8375C91.0873 18.161 90.9967 18.5177 90.9877 18.8812C90.6389 18.9957 90.3211 19.1398 90.003 19.2839Z" fill="black"/>
</svg>
